<?xml version="1.0" encoding="UTF-8"?>
<svg width="1024" height="1024" viewBox="0 0 1024 1024" fill="none" xmlns="http://www.w3.org/2000/svg" role="img" aria-labelledby="title desc">
  <title id="title">WeGoTwo mark</title>
  <desc id="desc">A clean blue number two with a red heart and a small airplane, designed as the WeGoTwo app mark.</desc>
  <defs>
    <linearGradient id="blueMark" x1="252" y1="180" x2="752" y2="828" gradientUnits="userSpaceOnUse">
      <stop offset="0" stop-color="#1491FF"/>
      <stop offset="1" stop-color="#0052D9"/>
    </linearGradient>
    <linearGradient id="redHeart" x1="420" y1="480" x2="610" y2="704" gradientUnits="userSpaceOnUse">
      <stop offset="0" stop-color="#FF4558"/>
      <stop offset="1" stop-color="#E8364E"/>
    </linearGradient>
  </defs>

  <g id="WeGoTwo-Mark">
    <path id="two" d="M 504.60 689.73 L 807.15 689.73 L 807.15 820.00 L 307.42 820.00 L 307.42 689.73 L 558.39 468.08 Q 592.14 437.73 608.20 408.69 Q 624.26 379.66 624.26 348.42 Q 624.26 300.08 591.84 270.61 Q 559.42 241.14 505.48 241.14 Q 464.07 241.14 414.71 258.82 Q 365.48 276.51 309.34 311.58 L 309.34 160.53 Q 369.17 140.78 427.67 130.46 Q 486.18 120.00 542.33 120.00 Q 665.82 120.00 734.20 174.38 Q 802.58 228.61 802.58 325.87 Q 802.58 382.02 773.55 430.65 Q 744.52 479.14 651.53 560.78 L 504.60 689.73 Z" fill="url(#blueMark)"/>
    <path id="heart" d="M 512 521
C 492 494 448 470 406 493
C 365 516 363 574 393 610
C 423 646 477 679 512 704
C 547 679 601 646 631 610
C 661 574 659 516 618 493
C 576 470 532 494 512 521
Z" fill="url(#redHeart)"/>
    <path id="plane" d="M 666 157
L 844 75
C 856 70 866 82 858 92
L 798 164
L 875 212
C 885 218 882 233 871 235
L 761 222
L 694 306
C 688 314 675 309 676 299
L 692 222
L 604 192
C 594 189 593 174 603 171
L 666 157
Z" fill="#0A66E8"/>
  </g>
</svg>
