<svg xmlns="http://www.w3.org/2000/svg" viewBox="0 0 813 220" role="img" aria-label="WeGoTwo">
  <path d="M61.230 171.280L61.230 171.280Q57.810 171.280 57.810 166.910L57.810 166.910Q57.810 162.730 61.230 156.270L61.230 156.270L97.900 103.450Q114.810 79.130 122.980 63.550Q131.150 47.970 131.150 41.510L131.150 41.510Q131.150 38.470 128.870 36.950Q126.590 35.430 123.550 34.860Q120.510 34.290 117.850 34.290L117.850 34.290Q101.700 34.290 72.820 54.050L72.820 54.050Q64.650 59.560 57.810 66.400Q50.970 73.240 45.080 81.030L45.080 81.030Q33.680 96.610 33.680 107.250L33.680 107.250Q33.680 115.420 41.280 117.130L41.280 117.130Q44.130 117.890 47.740 117.890L47.740 117.890Q54.580 117.890 61.420 114.470Q68.260 111.050 74.720 105.730L74.720 105.730Q79.660 101.550 80.420 101.550L80.420 101.550Q81.180 101.550 80.990 102.880L80.990 102.880Q79.850 106.870 75.480 110.480Q71.110 114.090 65.030 117.035Q58.950 119.980 52.775 121.595Q46.600 123.210 41.850 123.210L41.850 123.210Q34.250 123.210 28.550 119.315Q22.850 115.420 22.850 107.820L22.850 107.820Q22.850 96.230 36.340 79.320L36.340 79.320Q49.260 62.980 68.260 50.250L68.260 50.250Q76.050 44.930 86.500 40.085Q96.950 35.240 107.590 32.105Q118.230 28.970 126.590 28.970L126.590 28.970Q141.600 28.970 141.600 38.850L141.600 38.850Q141.600 50.820 123.550 80.080L123.550 80.080Q110.820 100.220 89.920 127.960L89.920 127.960Q72.630 150.950 72.440 150.950L72.440 150.950Q73.010 150.950 90.680 131.380L90.680 131.380Q101.510 119.220 111.105 109.625Q120.700 100.030 128.870 92.810L128.870 92.810Q132.860 89.200 138.560 83.785Q144.260 78.370 151.860 71.150L151.860 71.150Q158.510 65.070 164.875 60.130Q171.240 55.190 176.560 55.190L176.560 55.190Q182.070 55.190 183.780 57.850L183.780 57.850Q166.300 79.510 151.100 110.860L151.100 110.860Q140.270 133.280 140.270 144.870L140.270 144.870Q140.270 151.710 143.880 154.750Q147.490 157.790 153.380 157.790L153.380 157.790Q159.840 157.790 166.965 154.180Q174.090 150.570 181.120 144.870Q188.150 139.170 194.230 132.900L194.230 132.900Q216.080 110.860 229 85.210L229 85.210Q239.070 65.070 239.070 53.100L239.070 53.100Q239.070 51.960 238.975 51.010Q238.880 50.060 238.690 49.300L238.690 49.300Q234.700 49.300 230.140 45.120L230.140 45.120Q227.290 42.840 227.290 40.370L227.290 40.370Q227.290 38.090 229.190 36.570Q231.090 35.050 233.560 35.050L233.560 35.050Q237.170 35.050 238.880 38.280L238.880 38.280Q239.640 39.800 241.920 42.080L241.920 42.080Q243.440 43.600 243.250 44.360L243.250 44.360Q244.390 46.070 247.050 46.070L247.050 46.070Q249.710 46.070 252.085 43.790Q254.460 41.510 257.310 41.510L257.310 41.510Q258.830 41.510 258.830 42.650L258.830 42.650Q258.830 44.740 255.220 46.640L255.220 46.640Q253.320 47.970 250.660 48.350L250.660 48.350Q249.140 48.540 247.620 48.635Q246.100 48.730 244.580 48.350L244.580 48.350Q246.860 55.950 246.860 59.560L246.860 59.560Q246.860 74.760 232.420 98.890L232.420 98.890Q225.200 111.050 215.890 121.880Q206.580 132.710 194.990 142.210L194.990 142.210Q172 161.590 154.140 161.590L154.140 161.590Q134.570 161.590 134.570 143.350L134.570 143.350Q134.570 134.800 138.180 123.875Q141.790 112.950 146.730 102.120L146.730 102.120L160.410 72.290Q152.050 78.750 146.825 82.835Q141.600 86.920 138.085 89.770Q134.570 92.620 131.435 95.565Q128.300 98.510 123.930 102.690L123.930 102.690Q119.180 107.440 111.200 116.275Q103.220 125.110 92.580 138.220L92.580 138.220L70.540 165.200Q68.640 167.480 66.170 169.380Q63.700 171.280 61.230 171.280ZM245.340 152.470L245.340 152.470Q239.260 152.470 234.320 148.575Q229.380 144.680 229.380 138.220L229.380 138.220Q229.380 124.730 245.910 107.440L245.910 107.440Q262.820 89.960 276.120 89.960L276.120 89.960Q280.490 89.960 283.245 92.335Q286 94.710 286 98.130L286 98.130Q286 108.770 269.090 119.030L269.090 119.030Q254.080 128.150 243.820 128.150L243.820 128.150Q242.300 128.150 241.160 127.770L241.160 127.770Q238.310 132.900 238.310 138.600L238.310 138.600Q238.310 148.480 247.620 148.480L247.620 148.480Q257.120 148.480 272.130 135.750L272.130 135.750Q283.720 126.440 291.890 115.990L291.890 115.990Q293.600 113.710 294.930 113.710L294.930 113.710Q296.070 113.710 296.070 114.850L296.070 114.850Q296.070 115.990 294.550 118.080L294.550 118.080Q289.230 125.110 283.150 131Q277.070 136.890 270.040 141.830L270.040 141.830Q255.410 152.470 245.340 152.470ZM246.480 123.970L246.480 123.970Q253.700 123.970 265.290 116.750L265.290 116.750Q269.090 114.090 272.795 110.765Q276.500 107.440 278.875 104.020Q281.250 100.600 281.250 97.940L281.250 97.940Q281.250 95.470 277.260 95.470L277.260 95.470Q271.560 95.470 261.300 104.020L261.300 104.020Q256.360 108.200 251.800 113.140Q247.240 118.080 244.010 123.590L244.010 123.590Q245.150 123.970 246.480 123.970Z" fill="#E63E5C"></path>
  <path d="M347.080 63.360L347.080 63.360Q355.240 63.360 360.400 65.640Q365.560 67.920 369.640 71.160L369.640 71.160Q371.080 72.240 372.040 72.240L372.040 72.240Q374.320 72.240 375.040 65.040L375.040 65.040L377.800 65.040Q377.560 69.720 377.440 76.380Q377.320 83.040 377.320 94.080L377.320 94.080L374.560 94.080Q373.720 86.880 371.980 81.540Q370.240 76.200 365.560 72.360L365.560 72.360Q362.680 69.600 358.420 68.040Q354.160 66.480 349.840 66.480L349.840 66.480Q343.240 66.480 338.560 69.900Q333.880 73.320 330.880 79.200Q327.880 85.080 326.440 92.460Q325 99.840 325 107.760L325 107.760Q325 129.360 330.940 139.320Q336.880 149.280 348.040 149.280L348.040 149.280Q350.920 149.280 353.080 148.560Q355.240 147.840 356.560 146.880L356.560 146.880Q358.240 145.680 358.840 144.300Q359.440 142.920 359.440 140.640L359.440 140.640L359.440 128.880Q359.440 123.360 358.540 120.660Q357.640 117.960 355 117Q352.360 116.040 347.320 115.920L347.320 115.920L347.320 113.520Q349.840 113.640 353.380 113.700Q356.920 113.760 360.760 113.820Q364.600 113.880 367.840 113.880L367.840 113.880Q372.880 113.880 377.080 113.760Q381.280 113.640 383.920 113.520L383.920 113.520L383.920 115.920Q381.640 116.040 380.500 116.760Q379.360 117.480 378.940 119.640Q378.520 121.800 378.520 126.240L378.520 126.240L378.520 150L376.120 150Q376 147.960 375.220 145.560Q374.440 143.160 372.640 143.160L372.640 143.160Q371.800 143.160 370.420 143.580Q369.040 144 366.160 145.680L366.160 145.680Q361.720 148.200 356.800 149.940Q351.880 151.680 346.480 151.680L346.480 151.680Q332.560 151.680 322.960 146.520Q313.360 141.360 308.500 131.700Q303.640 122.040 303.640 108.480L303.640 108.480Q303.640 94.800 309.220 84.720Q314.800 74.640 324.580 69Q334.360 63.360 347.080 63.360ZM420.520 86.280L420.520 86.280Q429.280 86.280 435.880 89.520Q442.480 92.760 446.200 99.960Q449.920 107.160 449.920 119.040L449.920 119.040Q449.920 130.920 446.200 138.060Q442.480 145.200 435.880 148.440Q429.280 151.680 420.520 151.680L420.520 151.680Q412 151.680 405.340 148.440Q398.680 145.200 394.900 138.060Q391.120 130.920 391.120 119.040L391.120 119.040Q391.120 107.160 394.900 99.960Q398.680 92.760 405.340 89.520Q412 86.280 420.520 86.280ZM420.520 88.680L420.520 88.680Q415.720 88.680 412.480 95.820Q409.240 102.960 409.240 119.040L409.240 119.040Q409.240 135.120 412.480 142.200Q415.720 149.280 420.520 149.280L420.520 149.280Q425.440 149.280 428.620 142.200Q431.800 135.120 431.800 119.040L431.800 119.040Q431.800 102.960 428.620 95.820Q425.440 88.680 420.520 88.680Z" fill="#111111"></path>
  <circle cx="502.48" cy="108" r="26" fill="none" stroke="#111111" stroke-width="2" stroke-dasharray="4 4"></circle>
  <path d="M502.939 101.946L502.939 101.946Q505.557 101.946 507.087 103.068Q508.617 104.190 508.617 106.264L508.617 106.264Q508.617 107.590 507.954 108.678Q507.291 109.766 506.203 110.735Q505.115 111.704 503.874 112.554Q502.633 113.404 501.477 114.237Q500.321 115.070 499.505 115.954L499.505 115.954L506.849 115.954Q508.243 115.954 508.617 115.614Q508.991 115.274 509.127 114.424L509.127 114.424L509.841 114.424Q509.841 116.702 509.875 117.960Q509.909 119.218 509.977 120.170L509.977 120.170Q509.671 120.102 508.855 120.068Q508.039 120.034 506.985 120.017Q505.931 120 504.911 120L504.911 120L495.017 120L495.017 119.354Q495.969 118.334 497.363 117.110Q498.757 115.886 500.100 114.390Q501.443 112.894 502.361 111.143Q503.279 109.392 503.279 107.386L503.279 107.386Q503.279 105.550 502.463 104.734Q501.647 103.918 500.117 103.918L500.117 103.918Q498.655 103.918 497.550 104.581Q496.445 105.244 495.561 106.536L495.561 106.536L494.983 106.196Q495.663 105.040 496.700 104.071Q497.737 103.102 499.267 102.524Q500.797 101.946 502.939 101.946Z" fill="#111111"></path>
  <path d="M627.520 65.040L627.520 65.040Q627.040 71.160 626.860 76.800Q626.680 82.440 626.680 85.440L626.680 85.440Q626.680 88.080 626.800 90.480Q626.920 92.880 627.040 94.560L627.040 94.560L624.280 94.560Q622.360 84.480 619.420 78.600Q616.480 72.720 612.400 70.260Q608.320 67.800 602.800 67.800L602.800 67.800L600.040 67.800L600.040 136.320Q600.040 141.120 601.060 143.520Q602.080 145.920 604.840 146.700Q607.600 147.480 612.880 147.600L612.880 147.600L612.880 150Q609.160 149.880 602.980 149.760Q596.800 149.640 590.080 149.640L590.080 149.640Q583.480 149.640 577.600 149.760Q571.720 149.880 568.120 150L568.120 150L568.120 147.600Q573.520 147.480 576.280 146.700Q579.040 145.920 580 143.520Q580.960 141.120 580.960 136.320L580.960 136.320L580.960 67.800L578.320 67.800Q572.800 67.800 568.720 70.260Q564.640 72.720 561.760 78.540Q558.880 84.360 556.720 94.560L556.720 94.560L553.960 94.560Q554.200 92.880 554.260 90.480Q554.320 88.080 554.320 85.440L554.320 85.440Q554.320 82.440 554.140 76.800Q553.960 71.160 553.480 65.040L553.480 65.040Q559 65.160 565.540 65.280Q572.080 65.400 578.680 65.400L578.680 65.400L602.560 65.400Q609.040 65.400 615.640 65.280Q622.240 65.160 627.520 65.040ZM662.440 87.960L662.440 87.960L662.440 90.480Q659.800 90.480 657.820 90.780Q655.840 91.080 655.180 92.520Q654.520 93.960 655.600 97.200L655.600 97.200L666.400 131.160L679.480 87.840Q681.640 87.960 683.860 87.900Q686.080 87.840 688.240 87.840L688.240 87.840L703.840 133.680L711.400 109.560Q713.440 102.960 712.960 98.880Q712.480 94.800 710.080 92.760Q707.680 90.720 703.600 90.360L703.600 90.360L703.600 87.960Q705.520 88.080 707.800 88.080L707.800 88.080L712.240 88.200Q714.400 88.320 715.960 88.320L715.960 88.320Q718.360 88.320 720.940 88.200Q723.520 88.080 725.080 87.960L725.080 87.960L725.080 90.360Q722.800 90.960 720.760 93.120Q718.720 95.280 716.920 100.680L716.920 100.680L700.960 150.240Q699.040 150.120 697.060 150.120Q695.080 150.120 693.160 150.240L693.160 150.240L676.840 105.720L663.520 150.240Q661.600 150.120 659.680 150.120Q657.760 150.120 655.720 150.240L655.720 150.240L636.760 97.200Q635.080 92.400 633.100 91.440Q631.120 90.480 629.800 90.480L629.800 90.480L629.800 87.960Q633.640 88.320 637.780 88.500Q641.920 88.680 646.840 88.680L646.840 88.680Q650.560 88.680 654.700 88.440Q658.840 88.200 662.440 87.960ZM758.920 86.280L758.920 86.280Q767.680 86.280 774.280 89.520Q780.880 92.760 784.600 99.960Q788.320 107.160 788.320 119.040L788.320 119.040Q788.320 130.920 784.600 138.060Q780.880 145.200 774.280 148.440Q767.680 151.680 758.920 151.680L758.920 151.680Q750.400 151.680 743.740 148.440Q737.080 145.200 733.300 138.060Q729.520 130.920 729.520 119.040L729.520 119.040Q729.520 107.160 733.300 99.960Q737.080 92.760 743.740 89.520Q750.400 86.280 758.920 86.280ZM758.920 88.680L758.920 88.680Q754.120 88.680 750.880 95.820Q747.640 102.960 747.640 119.040L747.640 119.040Q747.640 135.120 750.880 142.200Q754.120 149.280 758.920 149.280L758.920 149.280Q763.840 149.280 767.020 142.200Q770.200 135.120 770.200 119.040L770.200 119.040Q770.200 102.960 767.020 95.820Q763.840 88.680 758.920 88.680Z" fill="#2F6BEB"></path>
</svg>